# xmcd CD database file
#
# Track frame offsets:
#	150
#	29212
#	58274
#	84029
#	160278
#
# Disc length: 2434 seconds
#
# Revision: 0
# Processed by: cddbd v1.5.2PL0 Copyright (c) Steve Scherf et al.
# Submitted via: CDex 1.70beta2
#
DISCID=3b098005
DTITLE=Irakere - Live At Newport And Montreux
DYEAR=1978
DGENRE=Jazz
TTITLE0=Juana 1600
TTITLE1=Ilyá
TTITLE2=Adagio On A Mozart Theme
TTITLE3=Misa Negra
TTITLE4=Aguanile Bonkó
EXTD=YEAR: 1978
EXTT0=
EXTT1=
EXTT2=
EXTT3=
EXTT4=
PLAYORDER=
